# xmcd CD database file generated by Grip 3.2.0
# 
# Track frame offsets:
#       182
#       42562
#       86705
#       133070
# 
# Disc length: 2294 seconds
# 
# Revision: 3
# Processed by: cddbd v1.5.2PL0 Copyright (c) Steve Scherf et al.
# Submitted via: Grip 3.2.0
# 
DISCID=3408f404,3c08f404
DTITLE=Antonio Vivaldi - Die vier Jahreszeiten (Zagreber Solisten - Antonio J
DTITLE=anigro)
DYEAR=1900
DGENRE=Classical
TTITLE0=Der Frühling
TTITLE1=Der Sommer
TTITLE2=Der Herbst
TTITLE3=Der Winter
EXTD=
EXTT0=
EXTT1=
EXTT2=
EXTT3=
PLAYORDER=
